<svg xmlns="http://www.w3.org/2000/svg" width="285.001" height="297.996"><g data-name="Shape 4" stroke-linejoin="round"><g data-name="Shape 4" fill="#394b50"><path d="M142.97 298.01l-1.3-2.266-6.708-11.683a140.926 140.926 0 01-26.41-3.928 140.086 140.086 0 01-25.288-8.92 141.188 141.188 0 01-22.821-13.35 142.207 142.207 0 01-19.834-17.259 142.273 142.273 0 01-16.33-20.648 141.467 141.467 0 01-12.309-23.518 140.979 140.979 0 01-7.766-25.867A142.84 142.84 0 011.5 142.88c0-9.591.964-19.177 2.865-28.49a140.961 140.961 0 018.216-26.54 141.496 141.496 0 0113-24.016 142.265 142.265 0 0117.216-20.923 142.067 142.067 0 0120.867-17.263 140.924 140.924 0 0123.952-13.036 140.032 140.032 0 0126.47-8.239A141.65 141.65 0 01142.5 1.5c9.566 0 19.127.967 28.416 2.873a140.03 140.03 0 0126.47 8.239 140.922 140.922 0 0123.951 13.036 142.066 142.066 0 0120.866 17.263 142.269 142.269 0 0117.217 20.923 141.5 141.5 0 0113 24.016 140.961 140.961 0 018.216 26.54 142.827 142.827 0 012.864 28.49c0 9.276-.902 18.554-2.68 27.574a140.989 140.989 0 01-7.701 25.77 141.456 141.456 0 01-12.208 23.443 142.285 142.285 0 01-16.202 20.606 142.227 142.227 0 01-19.684 17.255 141.143 141.143 0 01-22.656 13.392 140.085 140.085 0 01-25.116 9.013 140.903 140.903 0 01-26.243 4.073l-6.74 11.738-1.3 2.265z"/><path d="M142.97 294.997l7.144-12.442c73.504-3.963 131.887-64.982 131.887-139.675C282.001 65.626 219.544 3 142.501 3S3.001 65.626 3.001 142.88c0 75.018 58.897 136.244 132.854 139.724l7.116 12.393m0 3a3 3 0 01-2.602-1.507l-6.303-10.977a142.43 142.43 0 01-25.875-3.924 141.609 141.609 0 01-25.56-9.015 142.666 142.666 0 01-23.063-13.493 143.7 143.7 0 01-20.045-17.441 143.798 143.798 0 01-16.502-20.867 142.961 142.961 0 01-12.44-23.768 142.482 142.482 0 01-7.848-26.143A144.35 144.35 0 010 142.88c0-9.692.974-19.379 2.895-28.79A142.446 142.446 0 0111.2 87.266a143.012 143.012 0 0113.138-24.271 143.84 143.84 0 0117.398-21.144 143.624 143.624 0 0121.088-17.446A142.416 142.416 0 0187.03 11.23a141.517 141.517 0 0126.754-8.327A143.14 143.14 0 01142.501 0c9.667 0 19.329.977 28.717 2.904a141.515 141.515 0 0126.754 8.327 142.416 142.416 0 0124.207 13.175 143.623 143.623 0 0121.088 17.446 143.84 143.84 0 0117.398 21.144 143.008 143.008 0 0113.138 24.27 142.45 142.45 0 018.303 26.823 144.284 144.284 0 012.895 28.79c0 9.374-.911 18.75-2.709 27.866a142.491 142.491 0 01-7.783 26.043 142.978 142.978 0 01-28.71 44.517 143.705 143.705 0 01-19.893 17.438 142.677 142.677 0 01-22.897 13.534 141.596 141.596 0 01-25.385 9.11 142.34 142.34 0 01-25.714 4.066l-6.338 11.037a3 3 0 01-2.601 1.507z" fill="#fff"/></g><g data-name="Stroke Effect" fill="none"><path d="M135.855 282.6C61.901 279.124 3.001 217.9 3.001 142.88 3.001 65.626 65.458 3 142.501 3s139.5 62.626 139.5 139.88c0 74.693-58.383 135.712-131.887 139.675L142.971 295z"/><path d="M142.97 294.997l7.144-12.442c73.504-3.963 131.887-64.982 131.887-139.675C282.001 65.626 219.544 3 142.501 3S3.001 65.626 3.001 142.88c0 75.018 58.897 136.244 132.854 139.724l7.116 12.393m0 3a3 3 0 01-2.602-1.507l-6.303-10.977a142.43 142.43 0 01-25.875-3.924 141.609 141.609 0 01-25.56-9.015 142.666 142.666 0 01-23.063-13.493 143.7 143.7 0 01-20.045-17.441 143.798 143.798 0 01-16.502-20.867 142.961 142.961 0 01-12.44-23.768 142.482 142.482 0 01-7.848-26.143A144.35 144.35 0 010 142.88c0-9.692.974-19.379 2.895-28.79A142.446 142.446 0 0111.2 87.266a143.012 143.012 0 0113.138-24.271 143.84 143.84 0 0117.398-21.144 143.624 143.624 0 0121.088-17.446A142.416 142.416 0 0187.03 11.23a141.517 141.517 0 0126.754-8.327A143.14 143.14 0 01142.501 0c9.667 0 19.329.977 28.717 2.904a141.515 141.515 0 0126.754 8.327 142.416 142.416 0 0124.207 13.175 143.623 143.623 0 0121.088 17.446 143.84 143.84 0 0117.398 21.144 143.008 143.008 0 0113.138 24.27 142.45 142.45 0 018.303 26.823 144.284 144.284 0 012.895 28.79c0 9.374-.911 18.75-2.709 27.866a142.491 142.491 0 01-7.783 26.043 142.978 142.978 0 01-28.71 44.517 143.705 143.705 0 01-19.893 17.438 142.677 142.677 0 01-22.897 13.534 141.596 141.596 0 01-25.385 9.11 142.34 142.34 0 01-25.714 4.066l-6.338 11.037a3 3 0 01-2.601 1.507z" fill="#fff"/></g></g></svg>