<svg xmlns="http://www.w3.org/2000/svg" width="727.6" height="128.229"><g data-name="Arrow's"><path data-name="Shape 2" d="M8.973 23.38c64.828-51.8 111.373 3.062 111.373 3.062" fill="none" stroke="#9aca40" stroke-linecap="round" stroke-width="2" stroke-dasharray="0 4"/><path data-name="Shape 3" d="M-.003 29.65l10.673.2-7.959-10.516L-.003 29.65" fill="#709dca"/><path data-name="Shape 3 copy" d="M127.597 32.92l-11.017.206 8.216-11.017 2.801 10.811" fill="#709dca"/><path data-name="Shape 2 copy" d="M608.973 23.38c64.828-51.8 111.373 3.062 111.373 3.062" fill="none" stroke="#9aca40" stroke-linecap="round" stroke-width="2" stroke-dasharray="0 4"/><path data-name="Shape 3 copy 2" d="M599.997 29.65l10.673.2-7.959-10.516-2.714 10.319m127.6 3.267l-11.017.206 8.215-11.017 2.8 10.811" fill="#76a1cc"/><path data-name="Shape 2 copy 2" d="M308.597 104.86c65.034 51.8 111.728-3.062 111.728-3.062" fill="none" stroke="#9aca40" stroke-linecap="round" stroke-width="2" stroke-dasharray="0 4"/><path data-name="Shape 3 copy 3" d="M299.597 98.59l10.707-.2-7.984 10.516-2.723-10.316m129-2.27l-11.052-.206 8.242 11.017 2.81-10.811" fill="#76a1cc"/></g></svg>