<svg xmlns="http://www.w3.org/2000/svg" width="285.001" height="297.996" viewBox="0 0 285.001 297.996">
  <g id="Shape_4" data-name="Shape 4" transform="translate(-707.999 -5268)">
    <g id="Shape_4-2" data-name="Shape 4" fill="#394b50" stroke-linejoin="round">
      <path d="M 850.9696044921875 5566.00927734375 L 849.6688232421875 5563.74365234375 L 842.9609375 5552.060546875 C 834.0448608398438 5551.5888671875 825.1636962890625 5550.2685546875 816.55078125 5548.13330078125 C 807.8803100585938 5545.984375 799.3721313476562 5542.98291015625 791.2626342773438 5539.21337890625 C 783.2855834960938 5535.5048828125 775.6075439453125 5531.01318359375 768.4420166015625 5525.86328125 C 761.3336181640625 5520.75390625 754.660400390625 5514.947265625 748.6077270507812 5508.60400390625 C 742.5484008789062 5502.25439453125 737.0540771484375 5495.30712890625 732.2772827148438 5487.9560546875 C 727.4520263671875 5480.5302734375 723.3109741210938 5472.61767578125 719.9691162109375 5464.43798828125 C 716.5656127929688 5456.107421875 713.9527587890625 5447.404296875 712.203125 5438.57080078125 C 710.4089965820312 5429.5126953125 709.4993286132812 5420.1962890625 709.4993286132812 5410.8798828125 C 709.4993286132812 5401.28857421875 710.4630737304688 5391.703125 712.36376953125 5382.38916015625 C 714.2164306640625 5373.3115234375 716.980712890625 5364.38232421875 720.5800170898438 5355.849609375 C 724.1138305664062 5347.4716796875 728.4876708984375 5339.39208984375 733.580078125 5331.833984375 C 738.6238403320312 5324.34765625 744.4161987304688 5317.30810546875 750.7963256835938 5310.9111328125 C 757.176513671875 5304.513671875 764.1970825195312 5298.705078125 771.6629638671875 5293.64794921875 C 779.2009887695312 5288.54150390625 787.2595825195312 5284.15576171875 795.6148681640625 5280.61181640625 C 804.1250610351562 5277.0029296875 813.0308227539062 5274.23046875 822.0847778320312 5272.373046875 C 831.3740844726562 5270.466796875 840.9345092773438 5269.50048828125 850.50048828125 5269.50048828125 C 860.0662841796875 5269.50048828125 869.6265869140625 5270.466796875 878.915771484375 5272.373046875 C 887.9695434570312 5274.23046875 896.875244140625 5277.0029296875 905.3853149414062 5280.61181640625 C 913.7405395507812 5284.15576171875 921.7990112304688 5288.54150390625 929.3369750976562 5293.64794921875 C 936.8027954101562 5298.705078125 943.8233032226562 5304.513671875 950.2034301757812 5310.9111328125 C 956.58349609375 5317.30810546875 962.3758544921875 5324.34765625 967.4196166992188 5331.833984375 C 972.511962890625 5339.39208984375 976.8858032226562 5347.4716796875 980.4196166992188 5355.849609375 C 984.0188598632812 5364.38232421875 986.783203125 5373.3115234375 988.6358032226562 5382.38916015625 C 990.5364990234375 5391.703125 991.500244140625 5401.28857421875 991.500244140625 5410.8798828125 C 991.500244140625 5420.15625 990.598388671875 5429.43359375 988.8197021484375 5438.4541015625 C 987.0849609375 5447.25244140625 984.4940795898438 5455.921875 981.118896484375 5464.22314453125 C 977.8048706054688 5472.37353515625 973.6975708007812 5480.26171875 968.9110107421875 5487.66748046875 C 964.1729736328125 5494.99853515625 958.7218627929688 5501.93115234375 952.709228515625 5508.2734375 C 946.7039794921875 5514.607421875 940.0812377929688 5520.4130859375 933.0249633789062 5525.5283203125 C 925.9134521484375 5530.68408203125 918.2908935546875 5535.189453125 910.3690185546875 5538.919921875 C 902.31787109375 5542.7109375 893.8677368164062 5545.74365234375 885.25341796875 5547.9326171875 C 876.6982421875 5550.10693359375 867.872802734375 5551.4765625 859.0096435546875 5552.00634765625 L 852.2704467773438 5563.74365234375 L 850.9696044921875 5566.00927734375 Z" stroke="none"/>
      <path d="M 850.9696044921875 5562.99658203125 L 858.1133422851562 5550.5546875 C 931.616943359375 5546.59228515625 990.000244140625 5485.5732421875 990.000244140625 5410.8798828125 C 990.000244140625 5333.62646484375 927.5430297851562 5271.00048828125 850.50048828125 5271.00048828125 C 773.45654296875 5271.00048828125 710.9993286132812 5333.62646484375 710.9993286132812 5410.8798828125 C 710.9993286132812 5485.8984375 769.8973388671875 5547.12353515625 843.8538818359375 5550.603515625 L 850.9696044921875 5562.99658203125 M 850.9696044921875 5565.99658203125 C 849.895263671875 5565.99658203125 848.9028930664062 5565.421875 848.367919921875 5564.490234375 L 842.0651245117188 5553.51318359375 C 833.3286743164062 5553.00048828125 824.6320190429688 5551.68212890625 816.1898803710938 5549.58935546875 C 807.42626953125 5547.4169921875 798.8267822265625 5544.3837890625 790.6303100585938 5540.57373046875 C 782.568115234375 5536.82568359375 774.808349609375 5532.2861328125 767.5665283203125 5527.0810546875 C 760.3829345703125 5521.91796875 753.63916015625 5516.0498046875 747.5224609375 5509.6396484375 C 741.399169921875 5503.22265625 735.8468017578125 5496.2021484375 731.01953125 5488.7734375 C 726.1430053710938 5481.26904296875 721.9579467773438 5473.27197265625 718.58056640625 5465.00537109375 C 715.1407470703125 5456.5859375 712.5 5447.7900390625 710.731689453125 5438.8623046875 C 708.9186401367188 5429.70849609375 707.9993286132812 5420.29345703125 707.9993286132812 5410.8798828125 C 707.9993286132812 5401.18798828125 708.9732666015625 5391.50146484375 710.8941040039062 5382.08935546875 C 712.7664184570312 5372.91455078125 715.5602416992188 5363.89013671875 719.1979370117188 5355.2666015625 C 722.7693481445312 5346.7998046875 727.189697265625 5338.6337890625 732.3360595703125 5330.99560546875 C 737.4331665039062 5323.4306640625 743.2867431640625 5316.31689453125 749.7342529296875 5309.8515625 C 756.181884765625 5303.38671875 763.2767333984375 5297.51708984375 770.8217163085938 5292.40576171875 C 778.4400024414062 5287.2451171875 786.5845336914062 5282.8125 795.0291748046875 5279.23095703125 C 803.6307373046875 5275.5830078125 812.632080078125 5272.78125 821.7832641601562 5270.90380859375 C 831.1715698242188 5268.97705078125 840.8334350585938 5268.00048828125 850.50048828125 5268.00048828125 C 860.1673583984375 5268.00048828125 869.8290405273438 5268.97705078125 879.21728515625 5270.90380859375 C 888.3682861328125 5272.78125 897.3695678710938 5275.5830078125 905.9710083007812 5279.23095703125 C 914.41552734375 5282.8125 922.5599975585938 5287.2451171875 930.17822265625 5292.40576171875 C 937.72314453125 5297.51708984375 944.8179321289062 5303.38671875 951.2655029296875 5309.8515625 C 957.7129516601562 5316.31689453125 963.5665283203125 5323.4306640625 968.66357421875 5330.99560546875 C 973.8099975585938 5338.6337890625 978.2302856445312 5346.7998046875 981.8016967773438 5355.2666015625 C 985.4393310546875 5363.89013671875 988.233154296875 5372.91455078125 990.10546875 5382.08935546875 C 992.0263061523438 5391.50146484375 993.000244140625 5401.18798828125 993.000244140625 5410.8798828125 C 993.000244140625 5420.25341796875 992.0888671875 5429.62841796875 990.2913818359375 5438.74462890625 C 988.5382080078125 5447.63623046875 985.9196166992188 5456.3984375 982.5084228515625 5464.7880859375 C 979.1591186523438 5473.025390625 975.0081787109375 5480.9970703125 970.1708374023438 5488.48193359375 C 965.3826293945312 5495.89013671875 959.8739624023438 5502.896484375 953.7977294921875 5509.30517578125 C 947.7290649414062 5515.70654296875 941.0363159179688 5521.5732421875 933.9053955078125 5526.74267578125 C 926.7182006835938 5531.953125 919.0144653320312 5536.50634765625 911.008056640625 5540.27685546875 C 902.8705444335938 5544.10888671875 894.3297119140625 5547.173828125 885.6229248046875 5549.38671875 C 877.2362060546875 5551.51806640625 868.5942993164062 5552.88427734375 859.9086303710938 5553.45263671875 L 853.5712280273438 5564.490234375 C 853.0363159179688 5565.421875 852.0439453125 5565.99658203125 850.9696044921875 5565.99658203125 Z" stroke="none" fill="#fff"/>
    </g>
    <g id="Stroke_Effect" data-name="Stroke Effect" fill="none" stroke-linejoin="round">
      <path d="M843.854,5550.6C769.9,5547.124,711,5485.9,711,5410.88,711,5333.626,773.457,5271,850.5,5271S990,5333.626,990,5410.88c0,74.693-58.383,135.712-131.887,139.675L850.97,5563Z" stroke="none"/>
      <path d="M 850.9696044921875 5562.99658203125 L 858.1133422851562 5550.5546875 C 931.616943359375 5546.59228515625 990.000244140625 5485.5732421875 990.000244140625 5410.8798828125 C 990.000244140625 5333.62646484375 927.5430297851562 5271.00048828125 850.50048828125 5271.00048828125 C 773.45654296875 5271.00048828125 710.9993286132812 5333.62646484375 710.9993286132812 5410.8798828125 C 710.9993286132812 5485.8984375 769.8973388671875 5547.12353515625 843.8538818359375 5550.603515625 L 850.9696044921875 5562.99658203125 M 850.9696044921875 5565.99658203125 C 849.895263671875 5565.99658203125 848.9028930664062 5565.421875 848.367919921875 5564.490234375 L 842.0651245117188 5553.51318359375 C 833.3286743164062 5553.00048828125 824.6320190429688 5551.68212890625 816.1898803710938 5549.58935546875 C 807.42626953125 5547.4169921875 798.8267822265625 5544.3837890625 790.6303100585938 5540.57373046875 C 782.568115234375 5536.82568359375 774.808349609375 5532.2861328125 767.5665283203125 5527.0810546875 C 760.3829345703125 5521.91796875 753.63916015625 5516.0498046875 747.5224609375 5509.6396484375 C 741.399169921875 5503.22265625 735.8468017578125 5496.2021484375 731.01953125 5488.7734375 C 726.1430053710938 5481.26904296875 721.9579467773438 5473.27197265625 718.58056640625 5465.00537109375 C 715.1407470703125 5456.5859375 712.5 5447.7900390625 710.731689453125 5438.8623046875 C 708.9186401367188 5429.70849609375 707.9993286132812 5420.29345703125 707.9993286132812 5410.8798828125 C 707.9993286132812 5401.18798828125 708.9732666015625 5391.50146484375 710.8941040039062 5382.08935546875 C 712.7664184570312 5372.91455078125 715.5602416992188 5363.89013671875 719.1979370117188 5355.2666015625 C 722.7693481445312 5346.7998046875 727.189697265625 5338.6337890625 732.3360595703125 5330.99560546875 C 737.4331665039062 5323.4306640625 743.2867431640625 5316.31689453125 749.7342529296875 5309.8515625 C 756.181884765625 5303.38671875 763.2767333984375 5297.51708984375 770.8217163085938 5292.40576171875 C 778.4400024414062 5287.2451171875 786.5845336914062 5282.8125 795.0291748046875 5279.23095703125 C 803.6307373046875 5275.5830078125 812.632080078125 5272.78125 821.7832641601562 5270.90380859375 C 831.1715698242188 5268.97705078125 840.8334350585938 5268.00048828125 850.50048828125 5268.00048828125 C 860.1673583984375 5268.00048828125 869.8290405273438 5268.97705078125 879.21728515625 5270.90380859375 C 888.3682861328125 5272.78125 897.3695678710938 5275.5830078125 905.9710083007812 5279.23095703125 C 914.41552734375 5282.8125 922.5599975585938 5287.2451171875 930.17822265625 5292.40576171875 C 937.72314453125 5297.51708984375 944.8179321289062 5303.38671875 951.2655029296875 5309.8515625 C 957.7129516601562 5316.31689453125 963.5665283203125 5323.4306640625 968.66357421875 5330.99560546875 C 973.8099975585938 5338.6337890625 978.2302856445312 5346.7998046875 981.8016967773438 5355.2666015625 C 985.4393310546875 5363.89013671875 988.233154296875 5372.91455078125 990.10546875 5382.08935546875 C 992.0263061523438 5391.50146484375 993.000244140625 5401.18798828125 993.000244140625 5410.8798828125 C 993.000244140625 5420.25341796875 992.0888671875 5429.62841796875 990.2913818359375 5438.74462890625 C 988.5382080078125 5447.63623046875 985.9196166992188 5456.3984375 982.5084228515625 5464.7880859375 C 979.1591186523438 5473.025390625 975.0081787109375 5480.9970703125 970.1708374023438 5488.48193359375 C 965.3826293945312 5495.89013671875 959.8739624023438 5502.896484375 953.7977294921875 5509.30517578125 C 947.7290649414062 5515.70654296875 941.0363159179688 5521.5732421875 933.9053955078125 5526.74267578125 C 926.7182006835938 5531.953125 919.0144653320312 5536.50634765625 911.008056640625 5540.27685546875 C 902.8705444335938 5544.10888671875 894.3297119140625 5547.173828125 885.6229248046875 5549.38671875 C 877.2362060546875 5551.51806640625 868.5942993164062 5552.88427734375 859.9086303710938 5553.45263671875 L 853.5712280273438 5564.490234375 C 853.0363159179688 5565.421875 852.0439453125 5565.99658203125 850.9696044921875 5565.99658203125 Z" stroke="none" fill="#fff"/>
    </g>
  </g>
</svg>
