<svg xmlns="http://www.w3.org/2000/svg" width="727.6" height="128.229" viewBox="0 0 727.6 128.229">
  <g id="Arrow_s" data-name="Arrow&apos;s" transform="translate(-485.403 -3403.88)">
    <g id="Arrow_1">
      <path id="Shape_2" data-name="Shape 2" d="M494.376,3427.26c64.828-51.8,111.373,3.062,111.373,3.062" fill="none" stroke="#9aca40" stroke-linecap="round" stroke-width="2" stroke-dasharray="0 4"/>
      <path id="Shape_3" data-name="Shape 3" d="M485.4,3433.53l10.673.2-7.959-10.516L485.4,3433.53" fill="#709dca"/>
      <path id="Shape_3_copy" data-name="Shape 3 copy" d="M613,3436.8l-11.017.206,8.216-11.017L613,3436.8" fill="#709dca"/>
    </g>
    <g id="Arrow_3">
      <path id="Shape_2_copy" data-name="Shape 2 copy" d="M1094.376,3427.26c64.828-51.8,111.373,3.062,111.373,3.062" fill="none" stroke="#9aca40" stroke-linecap="round" stroke-width="2" stroke-dasharray="0 4"/>
      <path id="Shape_3_copy_2" data-name="Shape 3 copy 2" d="M1085.4,3433.53l10.673.2-7.959-10.516-2.714,10.319" fill="#76a1cc"/>
      <path id="Shape_3_copy_2-2" data-name="Shape 3 copy 2" d="M1213,3436.8l-11.017.206,8.215-11.017,2.8,10.811" fill="#76a1cc"/>
    </g>
    <g id="Arrow_2">
      <path id="Shape_2_copy_2" data-name="Shape 2 copy 2" d="M794,3508.74c65.034,51.8,111.728-3.062,111.728-3.062" fill="none" stroke="#9aca40" stroke-linecap="round" stroke-width="2" stroke-dasharray="0 4"/>
      <path id="Shape_3_copy_3" data-name="Shape 3 copy 3" d="M785,3502.47l10.707-.2-7.984,10.516L785,3502.47" fill="#76a1cc"/>
      <path id="Shape_3_copy_3-2" data-name="Shape 3 copy 3" d="M914,3500.2l-11.052-.206,8.242,11.017L914,3500.2" fill="#76a1cc"/>
    </g>
  </g>
</svg>
